<svg width="560" height="211" viewBox="0 0 560 211" fill="none" xmlns="http://www.w3.org/2000/svg">
<path d="M399.223 9H12V199.822H399.223V9Z" fill="white"/>
<path d="M454.842 0C454.085 0 453.324 0.011 452.559 0.033V0H17.179C7.687 0 0 7.687 0 17.18V193.13C0 202.621 7.687 210.309 17.18 210.309H452.559V210.275C453.324 210.298 454.085 210.309 454.842 210.309C512.92 210.309 559.992 163.227 559.992 105.149C559.992 47.071 512.919 0 454.841 0M396.362 170.78C396.362 186.674 383.479 199.558 367.585 199.558H23.151C21.6266 199.561 20.1166 199.263 18.7075 198.681C17.2985 198.1 16.0181 197.246 14.9396 196.168C13.8612 195.091 13.006 193.811 12.4229 192.403C11.8399 190.994 11.5405 189.484 11.542 187.96V22.349C11.542 15.943 16.734 10.751 23.151 10.751H367.575C383.475 10.751 396.363 23.641 396.363 39.539L396.362 170.78Z" fill="#2ECC40"/>
<path d="M80.906 145.764C85.986 145.764 90.556 144.697 94.616 142.564C98.676 140.437 101.853 137.507 104.146 133.774C106.446 130.041 107.596 125.797 107.596 121.044C107.596 116.777 106.673 113.191 104.826 110.284C102.979 107.371 100.559 104.931 97.566 102.964C94.5727 100.997 90.616 98.904 85.696 96.684C80.2027 94.144 75.9594 91.974 72.966 90.174C69.9727 88.3673 67.636 86.234 65.956 83.774C64.276 81.314 63.436 78.2807 63.436 74.674C63.436 69.6673 64.9527 65.7107 67.986 62.804C71.0194 59.8907 75.0794 58.434 80.166 58.434C88.6127 58.434 94.886 62.6573 98.986 71.104C101.033 75.284 102.713 80.1207 104.026 85.614L105.256 85.254L104.026 58.434H102.426L99.476 64.344C96.116 61.7173 92.9794 59.8307 90.066 58.684C87.1527 57.5373 84.016 56.964 80.656 56.964C75.816 56.964 71.4894 57.9673 67.676 59.974C63.8627 61.9807 60.8694 64.7673 58.696 68.334C56.5227 71.9007 55.436 75.9407 55.436 80.454C55.436 84.8807 56.4427 88.6307 58.456 91.704C60.4627 94.784 62.9827 97.2873 66.016 99.214C69.0494 101.141 72.8227 103.087 77.336 105.054C82.8294 107.434 87.0927 109.524 90.126 111.324C93.1594 113.131 95.5594 115.304 97.326 117.844C99.086 120.384 99.966 123.501 99.966 127.194C99.966 132.441 98.306 136.601 94.986 139.674C91.666 142.754 87.0527 144.294 81.146 144.294C74.2594 144.294 68.726 141.954 64.546 137.274C62.4927 134.981 60.8327 132.277 59.566 129.164C58.2927 126.044 57.0394 121.697 55.806 116.124L54.706 116.364L56.306 145.764H57.896L60.486 139.004C63.026 141.131 66.0994 142.791 69.706 143.984C73.3127 145.171 77.046 145.764 80.906 145.764ZM143.996 90.414C148.756 90.414 152.979 91.564 156.666 93.864C160.359 96.1573 163.229 99.374 165.276 103.514C167.329 107.654 168.356 112.391 168.356 117.724C168.356 123.051 167.329 127.784 165.276 131.924C163.229 136.071 160.359 139.291 156.666 141.584C152.979 143.877 148.756 145.024 143.996 145.024C139.243 145.024 135.023 143.877 131.336 141.584C127.643 139.291 124.773 136.071 122.726 131.924C120.673 127.784 119.646 123.051 119.646 117.724C119.646 112.391 120.673 107.654 122.726 103.514C124.773 99.374 127.643 96.1573 131.336 93.864C135.023 91.564 139.243 90.414 143.996 90.414ZM128.746 117.724C128.746 125.924 130.099 132.321 132.806 136.914C135.513 141.501 139.243 143.794 143.996 143.794C148.756 143.794 152.489 141.501 155.196 136.914C157.903 132.321 159.256 125.924 159.256 117.724C159.256 109.524 157.903 103.127 155.196 98.534C152.489 93.9407 148.756 91.644 143.996 91.644C139.243 91.644 135.513 93.9407 132.806 98.534C130.099 103.127 128.746 109.524 128.746 117.724ZM202.546 90.414C207.306 90.414 211.529 91.564 215.216 93.864C218.909 96.1573 221.779 99.374 223.826 103.514C225.879 107.654 226.906 112.391 226.906 117.724C226.906 123.051 225.879 127.784 223.826 131.924C221.779 136.071 218.909 139.291 215.216 141.584C211.529 143.877 207.306 145.024 202.546 145.024C197.793 145.024 193.569 143.877 189.876 141.584C186.189 139.291 183.319 136.071 181.266 131.924C179.219 127.784 178.196 123.051 178.196 117.724C178.196 112.391 179.219 107.654 181.266 103.514C183.319 99.374 186.189 96.1573 189.876 93.864C193.569 91.564 197.793 90.414 202.546 90.414ZM187.296 117.724C187.296 125.924 188.649 132.321 191.356 136.914C194.063 141.501 197.793 143.794 202.546 143.794C207.306 143.794 211.039 141.501 213.746 136.914C216.446 132.321 217.796 125.924 217.796 117.724C217.796 109.524 216.446 103.127 213.746 98.534C211.039 93.9407 207.306 91.644 202.546 91.644C197.793 91.644 194.063 93.9407 191.356 98.534C188.649 103.127 187.296 109.524 187.296 117.724ZM273.396 89.554C271.756 89.554 270.566 91.234 269.826 94.594C271.959 96.234 273.599 98.224 274.746 100.564C275.899 102.897 276.476 105.501 276.476 108.374C276.476 112.801 275.143 116.594 272.476 119.754C269.809 122.907 266.263 124.937 261.836 125.844C260.849 126.084 259.866 126.204 258.886 126.204C254.619 126.944 251.319 127.971 248.986 129.284C246.646 130.597 245.476 132.074 245.476 133.714C245.476 134.861 245.846 135.824 246.586 136.604C247.319 137.384 248.713 138.121 250.766 138.814C252.813 139.514 255.886 140.231 259.986 140.964C266.959 142.277 271.923 144.124 274.876 146.504C277.823 148.884 279.296 152.247 279.296 156.594C279.296 159.874 278.233 162.844 276.106 165.504C273.973 168.171 271.019 170.264 267.246 171.784C263.473 173.297 259.249 174.054 254.576 174.054C247.769 174.054 242.503 172.844 238.776 170.424C235.043 168.004 233.176 164.624 233.176 160.284C233.176 157.244 234.386 154.434 236.806 151.854C239.226 149.274 242.486 147.327 246.586 146.014C243.713 144.867 241.643 143.574 240.376 142.134C239.103 140.701 238.466 139.001 238.466 137.034C238.466 134.734 239.839 132.644 242.586 130.764C245.333 128.877 249.289 127.357 254.456 126.204C249.369 125.717 245.249 123.834 242.096 120.554C238.936 117.274 237.356 113.174 237.356 108.254C237.356 103.001 239.183 98.714 242.836 95.394C246.483 92.074 251.176 90.414 256.916 90.414C261.509 90.414 265.486 91.5207 268.846 93.734C270.893 86.6807 274.049 83.154 278.316 83.154C279.876 83.154 281.106 83.5873 282.006 84.454C282.906 85.314 283.356 86.4407 283.356 87.834C283.356 88.9807 282.946 89.964 282.126 90.784C281.306 91.604 280.323 92.014 279.176 92.014C278.196 92.014 277.173 91.564 276.106 90.664C275.939 90.5773 275.589 90.3707 275.056 90.044C274.523 89.7173 273.969 89.554 273.396 89.554ZM256.916 125.104C260.029 125.104 262.549 123.544 264.476 120.424C266.403 117.311 267.366 113.294 267.366 108.374C267.366 103.454 266.403 99.4373 264.476 96.324C262.549 93.204 260.029 91.644 256.916 91.644C253.796 91.644 251.273 93.204 249.346 96.324C247.419 99.4373 246.456 103.454 246.456 108.374C246.456 113.294 247.419 117.311 249.346 120.424C251.273 123.544 253.796 125.104 256.916 125.104ZM272.166 160.284C272.166 157.164 271.059 154.764 268.846 153.084C266.633 151.404 262.449 149.947 256.296 148.714C252.856 148.141 250.029 147.404 247.816 146.504C241.989 148.551 239.076 152.774 239.076 159.174C239.076 163.521 240.493 166.881 243.326 169.254C246.153 171.634 250.149 172.824 255.316 172.824C260.483 172.824 264.583 171.697 267.616 169.444C270.649 167.191 272.166 164.137 272.166 160.284ZM289.386 72.704C289.386 70.984 289.939 69.5707 291.046 68.464C292.153 67.3573 293.566 66.804 295.286 66.804C297.013 66.804 298.429 67.3573 299.536 68.464C300.643 69.5707 301.196 70.984 301.196 72.704C301.196 74.424 300.643 75.8373 299.536 76.944C298.429 78.0507 297.013 78.604 295.286 78.604C293.566 78.604 292.153 78.0507 291.046 76.944C289.939 75.8373 289.386 74.424 289.386 72.704ZM299.966 141.834V90.414H298.976L284.716 95.214V96.074L291.966 98.784V141.834L284.466 142.814V143.794H307.466V142.814L299.966 141.834ZM355.066 131.254L356.176 129.774L356.666 130.024L356.176 131.374C354.536 135.721 352.096 139.084 348.856 141.464C345.616 143.837 341.743 145.024 337.236 145.024C332.809 145.024 328.873 143.877 325.426 141.584C321.979 139.291 319.293 136.094 317.366 131.994C315.439 127.894 314.476 123.177 314.476 117.844C314.476 112.517 315.503 107.761 317.556 103.574C319.603 99.394 322.513 96.1573 326.286 93.864C330.059 91.564 334.366 90.414 339.206 90.414C344.946 90.414 349.353 92.1173 352.426 95.524C355.499 98.924 357.076 103.864 357.156 110.344L356.426 110.954H323.216C323.049 113.087 322.966 114.771 322.966 116.004C322.966 123.464 324.483 129.141 327.516 133.034C330.549 136.927 334.773 138.874 340.186 138.874C342.973 138.874 345.659 138.241 348.246 136.974C350.826 135.701 353.099 133.794 355.066 131.254ZM337.846 91.764C333.993 91.764 330.796 93.364 328.256 96.564C325.716 99.764 324.076 104.111 323.336 109.604L347.196 108.744C347.443 107.757 347.566 106.117 347.566 103.824C347.566 99.3973 346.726 96.2807 345.046 94.474C343.366 92.6673 340.966 91.764 337.846 91.764Z" fill="#2ECC40"/>
<path d="M513.453 87.315L503.633 71.865H438.163L428.735 86.792L428.342 87.315V87.446C428.342 92.291 432.008 96.219 436.722 96.743V137.073H505.204V96.612C509.787 96.088 513.453 92.16 513.453 87.315ZM510.573 86.399H496.431L491.586 73.829H502.454L510.573 86.399ZM480.063 86.399L478.492 73.829H489.622L494.467 86.399H480.063ZM478.099 86.399H463.696L465.267 73.829H476.397L478.099 86.399ZM461.732 86.399H447.459L452.304 73.829H463.434L461.732 86.399ZM461.47 88.363C461.219 90.0987 460.355 91.6871 459.034 92.8402C457.712 93.9933 456.022 94.6347 454.268 94.648C450.602 94.648 447.459 91.898 447.066 88.363H461.47ZM478.1 88.363C477.849 90.0987 476.985 91.6871 475.664 92.8402C474.342 93.9933 472.652 94.6347 470.898 94.648C467.231 94.648 464.088 91.898 463.696 88.363H478.1ZM494.86 88.363C494.609 90.0987 493.745 91.6871 492.424 92.8402C491.102 93.9933 489.412 94.6347 487.658 94.648C483.992 94.648 480.848 91.898 480.456 88.363H494.86ZM439.21 73.828H450.078L445.364 86.398H431.223L439.21 73.828ZM430.306 88.364H444.84C444.602 90.1228 443.735 91.7358 442.399 92.9037C441.062 94.0717 439.348 94.7154 437.573 94.7154C435.798 94.7154 434.084 94.0717 432.747 92.9037C431.411 91.7358 430.544 90.1228 430.306 88.364ZM445.888 134.848V107.612H462.518V134.848H445.888ZM464.481 134.848V105.648H443.924V134.848H438.555V96.612C441.829 96.219 444.448 94.255 445.888 91.505C447.459 94.517 450.602 96.743 454.268 96.743C457.934 96.743 461.077 94.648 462.648 91.505C464.22 94.517 467.362 96.743 471.028 96.743C474.695 96.743 477.838 94.648 479.408 91.505C480.98 94.517 484.122 96.743 487.788 96.743C491.455 96.743 494.598 94.648 496.168 91.505C497.609 94.255 500.228 96.35 503.502 96.612V134.977H464.482L464.481 134.848ZM504.156 94.648C500.49 94.648 497.347 91.899 496.955 88.364H511.489C511.21 90.1106 510.319 91.7013 508.976 92.8523C507.633 94.0034 505.925 94.6392 504.156 94.648Z" fill="white"/>
<path d="M475.219 121.669H495.776V107.789H475.219V121.669ZM477.052 109.754H493.812V119.705H477.052V109.754ZM458.851 119.705H460.815V121.669H458.851V119.705Z" fill="white"/>
</svg>
